<?xml version="1.0" encoding="UTF-8"?>
<svg width="27px" height="24px" viewBox="0 0 27 24" version="1.1" xmlns="http://www.w3.org/2000/svg" xmlns:xlink="http://www.w3.org/1999/xlink">
    <!-- Generator: Sketch 43.1 (39012) - http://www.bohemiancoding.com/sketch -->
    <title>Fill 25</title>
    <desc>Created with Sketch.</desc>
    <defs></defs>
    <g id="Page-1" stroke="none" stroke-width="1" fill="none" fill-rule="evenodd">
        <path d="M2.482,21.196 L24.482,21.196 L24.482,16.196 L2.482,16.196 L2.482,21.196 Z M13.482,11.196 C12.93,11.196 12.482,11.644 12.482,12.196 C12.482,12.749 12.93,13.196 13.482,13.196 C14.034,13.196 14.482,12.749 14.482,12.196 C14.482,11.644 14.034,11.196 13.482,11.196 Z M2.482,14.196 L24.482,14.196 L24.482,5.196 L2.482,5.196 L2.482,14.196 Z M13.482,2.196 C14.292,2.196 14.91,2.581 15.232,3.196 L11.732,3.196 C12.054,2.581 12.672,2.196 13.482,2.196 Z M13.482,0.196 C11.618,0.196 10.083,1.472 9.638,3.196 L0.482,3.196 L0.482,23.196 L26.482,23.196 L26.482,3.196 L17.326,3.196 C16.881,1.472 15.346,0.196 13.482,0.196 L13.482,0.196 Z" id="Fill-25" fill="#FFFFFF"></path>
    </g>
</svg>