<?xml version="1.0" encoding="UTF-8"?>
<svg width="25px" height="25px" viewBox="0 0 25 25" version="1.1" xmlns="http://www.w3.org/2000/svg" xmlns:xlink="http://www.w3.org/1999/xlink">
    <!-- Generator: Sketch 43.1 (39012) - http://www.bohemiancoding.com/sketch -->
    <title>Fill 20</title>
    <desc>Created with Sketch.</desc>
    <defs></defs>
    <g id="Page-1" stroke="none" stroke-width="1" fill="none" fill-rule="evenodd">
        <path d="M21.715,11.134 C21.949,11.134 22.195,11.21 22.379,11.394 C22.747,11.761 22.747,12.325 22.379,12.692 L13.436,21.636 L11.791,21.982 L12.137,20.337 L21.081,11.394 C21.265,11.21 21.482,11.134 21.715,11.134 Z M9.714,1.902 C12.274,1.902 14.33,3.958 14.33,6.518 C14.33,9.078 12.274,11.134 9.714,11.134 C7.153,11.134 5.098,9.078 5.098,6.518 C5.098,3.958 7.153,1.902 9.714,1.902 Z M9.714,0.056 C6.156,0.056 3.251,2.96 3.251,6.518 C3.251,8.742 4.388,10.721 6.107,11.884 C2.814,13.296 0.482,16.563 0.482,20.366 L2.328,20.366 C2.328,16.276 5.624,12.98 9.714,12.98 C11.695,12.98 13.465,13.791 14.792,15.058 L10.435,19.414 L10.377,19.703 L9.743,22.962 L9.454,24.318 L10.81,24.03 L14.07,23.395 L14.359,23.338 L23.677,14.019 C24.75,12.946 24.75,11.168 23.677,10.096 C23.141,9.559 22.425,9.288 21.715,9.288 C21.018,9.288 20.315,9.549 19.782,10.066 L19.753,10.096 L16.119,13.73 C15.315,12.957 14.361,12.33 13.32,11.884 C15.04,10.721 16.176,8.742 16.176,6.518 C16.176,2.96 13.272,0.056 9.714,0.056 L9.714,0.056 Z" id="Fill-20" fill="#FFFFFF"></path>
    </g>
</svg>