<svg xmlns="http://www.w3.org/2000/svg" viewBox="0 0 21.46 18"><defs><style>.cls-1{fill:#454545;}</style></defs><title>ico_subscript</title><g id="Layer_2" data-name="Layer 2"><g id="Layer_1-2" data-name="Layer 1"><path class="cls-1" d="M0,0,.9,1.38,4.64,7.2.9,13,0,14.4H5.74L6,14l1.49-2.31L9,14l.28.42H15L14.12,13,10.38,7.2l3.74-5.82L15,0H9.28L9,.42,7.51,2.73,6,.42,5.74,0H0ZM3.29,1.8H4.78l2,3.09.76,1.18.76-1.18,2-3.09h1.49L8.55,6.72l-.31.48.31.48,3.18,4.92H10.24l-2-3.09L7.51,8.32,6.75,9.51l-2,3.09H3.29L6.47,7.68l.31-.48-.31-.48ZM18.73,9.9a2.69,2.69,0,0,0-2.67,2.67v0h1.8v0a.86.86,0,0,1,.87-.87h.06a.86.86,0,0,1,.87.87.83.83,0,0,1-.37.7L17.38,14.6a3,3,0,0,0-1.32,2.5V18h5.4V16.2H18.34s0-.09.06-.11l1.91-1.32a2.66,2.66,0,0,0,1.15-2.19A2.69,2.69,0,0,0,18.79,9.9Z"/></g></g></svg>