<?xml version="1.0" encoding="utf-8"?>
<!-- Generator: Adobe Illustrator 22.0.0, SVG Export Plug-In . SVG Version: 6.00 Build 0)  -->
<svg width="25px" height="23px" version="1.1" id="Layer_1" xmlns="http://www.w3.org/2000/svg" xmlns:xlink="http://www.w3.org/1999/xlink" x="0px" y="0px"
	 viewBox="0 0 32 32" style="enable-background:new 0 0 32 32;" xml:space="preserve">
<style type="text/css">
	.st0{fill:#FFFFFF;}
</style>
<g id="surface1">
	<path class="st0" d="M23,5c-2.2,0-4,1.8-4,4c0,0.8,0.2,1.5,0.6,2.1L16.5,15h-4.7c-0.4-1.7-2-3-3.9-3c-2.2,0-4,1.8-4,4s1.8,4,4,4
		c1.9,0,3.4-1.3,3.9-3h4.7l3.1,3.9C19.2,21.5,19,22.2,19,23c0,2.2,1.8,4,4,4s4-1.8,4-4s-1.8-4-4-4c-0.7,0-1.3,0.2-1.9,0.5L18.3,16
		l2.8-3.5c0.6,0.3,1.2,0.5,1.9,0.5c2.2,0,4-1.8,4-4S25.2,5,23,5z M23,7c1.1,0,2,0.9,2,2c0,1.1-0.9,2-2,2s-2-0.9-2-2
		C21,7.9,21.9,7,23,7z M8,14c1.1,0,2,0.9,2,2s-0.9,2-2,2c-1.1,0-2-0.9-2-2S6.9,14,8,14z M23,21c1.1,0,2,0.9,2,2s-0.9,2-2,2
		s-2-0.9-2-2S21.9,21,23,21z"/>
</g>
</svg>
