<svg xmlns="http://www.w3.org/2000/svg" viewBox="0 0 20.44 18"><defs><style>.cls-1{fill:#fff;}</style></defs><title>ico_rev_superscript</title><g id="Layer_2" data-name="Layer 2"><g id="Layer_1-2" data-name="Layer 1"><path class="cls-1" d="M17.84,0a2.56,2.56,0,0,0-2.54,2.54v0H17v0a.82.82,0,0,1,.83-.83h.05a.82.82,0,0,1,.83.83.79.79,0,0,1-.35.67L16.55,4.47a2.9,2.9,0,0,0-1.26,2.38v.86h5.14V6h-3s0-.08.05-.11l1.82-1.26a2.53,2.53,0,0,0,1.1-2.09A2.56,2.56,0,0,0,17.89,0ZM0,4.29.86,5.6l3.56,5.54L.86,16.69,0,18H5.46l.27-.4,1.42-2.2,1.42,2.2.27.4H14.3l-.86-1.31L9.88,11.14,13.45,5.6l.86-1.31H8.84l-.27.4L7.15,6.88,5.73,4.69l-.27-.4H0ZM3.13,6H4.55L6.43,8.95l.72,1.12.72-1.12L9.75,6h1.42l-3,4.69-.29.46.29.46,3,4.69H9.75L7.88,13.34l-.72-1.12-.72,1.13L4.55,16.29H3.13l3-4.69.29-.46-.29-.46Z"/></g></g></svg>