<svg xmlns="http://www.w3.org/2000/svg" viewBox="0 0 9.46 18"><defs><style>.cls-1{fill:#fff;}</style></defs><title>ico_rev_italic</title><g id="Layer_2" data-name="Layer 2"><g id="Layer_1-2" data-name="Layer 1"><path class="cls-1" d="M9.46,0,9.38.87,9.23,3.32l-.05.77H7.54l-.72,9.82H8.46l-.05.87-.15,2.45L8.21,18H0l.08-.87.15-2.45.05-.77H1.92l.72-9.82H1L1,3.22,1.2.77,1.25,0ZM2.73,2.45H4.37l-.05.87L3.5,14.78l-.05.77H1.81l-.05.82H6.67l.05-.82H5.09l.05-.87L6,3.22,6,2.45H7.64l.05-.82H2.79Z"/></g></g></svg>