<svg xmlns="http://www.w3.org/2000/svg" viewBox="0 0 17.28 18"><defs><style>.cls-1{fill:#454545;}</style></defs><title>ico_ordered</title><g id="Layer_2" data-name="Layer 2"><g id="Layer_1-2" data-name="Layer 1"><path class="cls-1" d="M1.42,0,1.19.25a2,2,0,0,1-.9.47V2.16a2.17,2.17,0,0,0,1.15-.38V5H2.88V0H1.42ZM5,2.16V3.6H17.28V2.16ZM1.8,6.48A1.8,1.8,0,0,0,0,8.28v.36H1.44V8.28a.43.43,0,0,1,.36-.36.43.43,0,0,1,.36.36l0,0,0,0L.23,10.15l-.22.2v1.17H3.6V10.08H2.36L3,9.45l.09-.07,0,0A1.46,1.46,0,0,0,3.6,8.28,1.8,1.8,0,0,0,1.8,6.48ZM5,8.64v1.44H17.28V8.64ZM0,13V14.4H1l-.18.29-.09.16v1H1.8a.36.36,0,0,1,0,.72H0V18H1.8a1.8,1.8,0,0,0,1.8-1.8,1.68,1.68,0,0,0-1.1-1.51l.29-.5L2.88,14V13H0Zm5,2.16v1.44H17.28V15.12Z"/></g></g></svg>