<svg xmlns="http://www.w3.org/2000/svg" viewBox="0 0 18 18"><defs><style>.cls-1{fill:#fff;}</style></defs><title>ico_rev_link</title><g id="Layer_2" data-name="Layer 2"><g id="Layer_1-2" data-name="Layer 1"><path class="cls-1" d="M16.62,1.38A4.64,4.64,0,0,1,18,4.69,4.69,4.69,0,0,1,16.62,8l-1.1,1.1a4.69,4.69,0,0,1-3.33,1.38,4.61,4.61,0,0,1-1.71-.33L11.7,9a2.75,2.75,0,0,0,.49,0,3.2,3.2,0,0,0,2.27-.94L15.56,7a3.2,3.2,0,0,0,0-4.52,3.15,3.15,0,0,0-2.25-.94A3.2,3.2,0,0,0,11,2.44l-1.1,1.1A3.21,3.21,0,0,0,9,6.3L7.83,7.52A4.6,4.6,0,0,1,7.5,5.81,4.7,4.7,0,0,1,8.88,2.48L10,1.38A4.69,4.69,0,0,1,13.31,0,4.63,4.63,0,0,1,16.62,1.38ZM12.54,6.54l-6,6L5.46,11.46l6-6Zm-6.73,1a4.6,4.6,0,0,1,1.71.33L6.3,9a2.75,2.75,0,0,0-.49,0,3.2,3.2,0,0,0-2.27.94L2.44,11a3.2,3.2,0,0,0,0,4.52,3.15,3.15,0,0,0,2.25.94A3.2,3.2,0,0,0,7,15.56l1.1-1.1A3.21,3.21,0,0,0,9,11.7l1.22-1.22a4.6,4.6,0,0,1,.33,1.71,4.7,4.7,0,0,1-1.38,3.33L8,16.62A4.69,4.69,0,0,1,4.69,18,4.72,4.72,0,0,1,0,13.31,4.68,4.68,0,0,1,1.38,10l1.1-1.1A4.69,4.69,0,0,1,5.81,7.5Z"/></g></g></svg>