<?xml version="1.0" encoding="utf-8"?>
<!-- Generator: Adobe Illustrator 22.0.0, SVG Export Plug-In . SVG Version: 6.00 Build 0)  -->
<svg width="25px" height="23px" version="1.1" id="Layer_1" xmlns="http://www.w3.org/2000/svg" xmlns:xlink="http://www.w3.org/1999/xlink" x="0px" y="0px"
	 viewBox="0 0 32 32" style="enable-background:new 0 0 32 32;" xml:space="preserve">
<style type="text/css">
	.st0{fill:#FFFFFF;}
</style>
<g id="surface1">
	<path class="st0" d="M16,3.9L3.6,9.1L3,9.3V12h2v11H3v5h26v-5h-2V12h2V9.3l-0.6-0.3L16,3.9z M16,6.1l9.4,3.9H6.6L16,6.1z M7,12h2
		v11H7V12z M11,12h2v11h-2V12z M15,12h2v11h-2V12z M19,12h2v11h-2V12z M23,12h2v11h-2V12z M5,25h22v1H5V25z"/>
</g>
</svg>
