<svg xmlns="http://www.w3.org/2000/svg" viewBox="0 0 16.36 18"><defs><style>.cls-1{fill:#fff;}</style></defs><title>ico_rev_bold</title><g id="Layer_2" data-name="Layer 2"><g id="Layer_1-2" data-name="Layer 1"><path class="cls-1" d="M9,1.64H1.64V16.36h9A4.09,4.09,0,0,0,12,8.43a4,4,0,0,0,1.06-2.7A4.05,4.05,0,0,0,9,1.64M3.27,8.18V3.27H9a2.41,2.41,0,0,1,2.45,2.45A2.41,2.41,0,0,1,9,8.18H3.27m0,6.55V9.82h7.36a2.45,2.45,0,0,1,0,4.91H3.27m11.45-9a6.15,6.15,0,0,1-.41,2.13,6,6,0,0,1,2,4.42A5.69,5.69,0,0,1,10.64,18H0V0H9A5.69,5.69,0,0,1,14.73,5.73Zm-9.82.82H9a.77.77,0,0,0,.82-.82A.77.77,0,0,0,9,4.91H4.91Zm0,6.55h5.73a.82.82,0,0,0,0-1.64H4.91Z"/></g></g></svg>