<svg xmlns="http://www.w3.org/2000/svg" viewBox="0 0 17.99 18"><defs><style>.cls-1{fill:#454545;}</style></defs><title>ico_unlink</title><g id="Layer_2" data-name="Layer 2"><g id="Layer_1-2" data-name="Layer 1"><g id="surface1"><path class="cls-1" d="M13.31,0A4.73,4.73,0,0,0,10,1.38L8.88,2.49A4.6,4.6,0,0,0,7.54,5.21L9,5.39a3.1,3.1,0,0,1,.89-1.85L11,2.44A3.2,3.2,0,0,1,15.56,7l-1.1,1.1h0A3,3,0,0,1,12.61,9l.18,1.5a4.6,4.6,0,0,0,2.72-1.34L16.62,8a4.7,4.7,0,0,0-3.31-8ZM2.78,1.71,1.7,2.79l3,3L5.78,4.71ZM5.19,7.55A4.72,4.72,0,0,0,2.47,8.89L1.37,10A4.7,4.7,0,0,0,8,16.63l1.1-1.1a4.72,4.72,0,0,0,1.34-2.72L9,12.62a3.17,3.17,0,0,1-.9,1.85L7,15.57a3.2,3.2,0,0,1-4.52-4.52L3.53,10h0a3.06,3.06,0,0,1,1.83-.9Zm8.1,4.67L12.21,13.3l3,3,1.08-1.08Z"/></g></g></g></svg>