<?xml version="1.0" encoding="utf-8"?>
<!-- Generator: Adobe Illustrator 21.1.0, SVG Export Plug-In . SVG Version: 6.00 Build 0)  -->
<svg version="1.1" id="Layer_1" xmlns="http://www.w3.org/2000/svg" xmlns:xlink="http://www.w3.org/1999/xlink" x="0px" y="0px"
	 viewBox="0 0 24 24" style="enable-background:new 0 0 24 24;" xml:space="preserve">
<style type="text/css">
	.st0{fill:#009FD1;}
</style>
<path class="st0" d="M19.6,0.5c-1,0-2,0.4-2.7,1.2L2.1,16.4l-0.2,0.2l-0.1,0.3l-1,5.2l-0.3,1.4l1.4-0.3l5.2-1l0.3-0.1l0.2-0.2
	L22.3,7.2c1.5-1.5,1.5-4,0-5.5C21.6,0.9,20.6,0.5,19.6,0.5z M19.6,2.3c0.5,0,1,0.2,1.4,0.7c0.9,0.9,0.9,1.9,0,2.8l-0.7,0.7l-2.8-2.8
	L18.2,3C18.6,2.5,19.1,2.3,19.6,2.3z M16.2,5L19,7.8L7.6,19.2C6.9,18,6,17.1,4.8,16.4L16.2,5z M3.5,18c1.1,0.5,2,1.3,2.5,2.5
	l-3.1,0.6L3.5,18z"/>
</svg>
