<?xml version="1.0" encoding="utf-8"?>
<!-- Generator: Adobe Illustrator 22.0.0, SVG Export Plug-In . SVG Version: 6.00 Build 0)  -->
<svg width="25px" height="23px" version="1.1" id="Layer_1" xmlns="http://www.w3.org/2000/svg" xmlns:xlink="http://www.w3.org/1999/xlink" x="0px" y="0px"
	 viewBox="0 0 32 32" style="enable-background:new 0 0 32 32;" xml:space="preserve">
<style type="text/css">
	.st0{fill:#FFFFFF;}
</style>
<g id="surface1">
	<path class="st0" d="M3,3v22h9.5c1.6,2.4,4.4,4,7.5,4c5,0,9-4,9-9c0-4.6-3.5-8.4-8-8.9V3H3z M5,5h14v6.1c-1.7,0.2-3.3,0.9-4.6,1.9
		H7v2h5.5c-0.4,0.6-0.7,1.3-1,2H7v2h4.1c0,0.3-0.1,0.7-0.1,1c0,1.1,0.2,2.1,0.5,3H5V5z M7,9v2h10V9H7z M20,13c3.9,0,7,3.1,7,7
		s-3.1,7-7,7s-7-3.1-7-7S16.1,13,20,13z M16.7,15c-1.1,0.7-1.9,1.8-2.4,3H23v-3H16.7z M14.1,21c0.2,1.1,0.7,2.2,1.4,3H23v-3H14.1z"
		/>
</g>
</svg>
