<?xml version="1.0" encoding="UTF-8"?>
<svg width="240px" height="38px" viewBox="0 0 240 38" version="1.1" xmlns="http://www.w3.org/2000/svg" xmlns:xlink="http://www.w3.org/1999/xlink">
    <!-- Generator: Sketch 43.1 (39012) - http://www.bohemiancoding.com/sketch -->
    <title>Group</title>
    <desc>Created with Sketch.</desc>
    <defs></defs>
    <g id="Page-1" stroke="none" stroke-width="1" fill="none" fill-rule="evenodd">
        <g id="Group">
            <path d="M44.431,15.094 L46.259,15.094 L49.948,24.536 L49.979,24.536 L53.635,15.094 L55.495,15.094 L55.495,26.46 L54.128,26.46 L54.128,17.113 L54.096,17.113 C54.033,17.283 53.974,17.452 53.921,17.621 C53.868,17.77 53.813,17.926 53.754,18.091 C53.696,18.255 53.64,18.406 53.587,18.543 L50.472,26.46 L49.375,26.46 L46.259,18.543 C46.207,18.395 46.151,18.242 46.092,18.082 C46.035,17.924 45.979,17.77 45.925,17.621 C45.873,17.452 45.814,17.283 45.75,17.113 L45.719,17.113 L45.719,26.46 L44.431,26.46 L44.431,15.094" id="Fill-21" fill="#181816"></path>
            <path d="M60.009,25.633 C60.433,25.633 60.804,25.561 61.122,25.418 C61.44,25.275 61.7,25.098 61.901,24.886 C62.102,24.674 62.253,24.438 62.354,24.179 C62.455,23.919 62.504,23.667 62.504,23.424 L62.504,22.025 C62.292,22.162 62.014,22.282 61.67,22.382 C61.326,22.483 60.979,22.565 60.629,22.629 C60.311,22.692 60.009,22.756 59.723,22.82 C59.437,22.883 59.191,22.976 58.984,23.098 C58.777,23.22 58.613,23.376 58.491,23.567 C58.37,23.757 58.308,24.001 58.308,24.298 C58.308,24.574 58.359,24.799 58.459,24.974 C58.56,25.148 58.69,25.284 58.849,25.379 C59.007,25.474 59.188,25.54 59.389,25.578 C59.59,25.615 59.797,25.633 60.009,25.633 Z M63.888,26.539 C63.072,26.539 62.6,26.131 62.473,25.315 L62.458,25.315 C62.33,25.474 62.181,25.631 62.012,25.784 C61.842,25.938 61.647,26.078 61.424,26.205 C61.202,26.332 60.95,26.433 60.668,26.507 C60.388,26.581 60.073,26.619 59.723,26.619 C59.331,26.619 58.965,26.574 58.626,26.484 C58.287,26.393 57.993,26.253 57.744,26.062 C57.495,25.871 57.299,25.633 57.156,25.347 C57.013,25.061 56.941,24.722 56.941,24.329 C56.941,23.842 57.031,23.445 57.211,23.138 C57.392,22.83 57.641,22.581 57.958,22.39 C58.277,22.2 58.656,22.054 59.095,21.953 C59.535,21.852 60.009,21.76 60.518,21.675 C60.804,21.633 61.069,21.588 61.313,21.54 C61.556,21.492 61.766,21.429 61.941,21.349 C62.116,21.27 62.25,21.164 62.346,21.031 C62.441,20.899 62.489,20.721 62.489,20.499 C62.489,20.033 62.33,19.675 62.012,19.426 C61.694,19.177 61.239,19.052 60.645,19.052 C59.977,19.052 59.474,19.198 59.135,19.489 C58.795,19.781 58.616,20.239 58.594,20.864 L57.355,20.864 C57.365,20.473 57.439,20.104 57.578,19.76 C57.714,19.415 57.918,19.121 58.189,18.877 C58.459,18.634 58.798,18.44 59.207,18.297 C59.615,18.154 60.088,18.082 60.629,18.082 C61.064,18.082 61.466,18.128 61.837,18.218 C62.208,18.308 62.529,18.453 62.799,18.655 C63.069,18.856 63.281,19.124 63.435,19.457 C63.588,19.791 63.666,20.202 63.666,20.689 L63.666,24.6 C63.666,24.939 63.721,25.191 63.833,25.355 C63.944,25.519 64.179,25.559 64.54,25.474 L64.587,25.474 L64.587,26.412 C64.502,26.444 64.407,26.473 64.301,26.499 C64.195,26.526 64.057,26.539 63.888,26.539 L63.888,26.539 Z" id="Fill-22" fill="#181816"></path>
            <path d="M66.829,19.609 L66.86,19.609 C67.104,19.206 67.435,18.862 67.854,18.576 C68.272,18.289 68.757,18.146 69.308,18.146 C69.424,18.146 69.52,18.154 69.594,18.17 L69.833,18.242 L69.833,19.481 L69.785,19.481 C69.69,19.45 69.602,19.429 69.523,19.418 C69.443,19.408 69.34,19.402 69.212,19.402 C68.895,19.402 68.593,19.46 68.307,19.577 C68.021,19.694 67.766,19.858 67.543,20.07 C67.321,20.282 67.146,20.544 67.019,20.856 C66.892,21.169 66.829,21.516 66.829,21.897 L66.829,26.46 L65.541,26.46 L65.541,18.242 L66.829,18.242 L66.829,19.609" id="Fill-23" fill="#181816"></path>
            <polyline id="Fill-24" fill="#181816" points="73.489 22.025 72.281 23.169 72.281 26.46 70.993 26.46 70.993 15.094 72.281 15.094 72.281 21.755 75.889 18.242 77.526 18.242 74.378 21.198 77.908 26.46 76.398 26.46 73.489 22.025"></polyline>
            <path d="M81.723,19.052 C81.341,19.052 81.001,19.119 80.706,19.251 C80.409,19.384 80.157,19.569 79.951,19.807 C79.744,20.046 79.574,20.327 79.442,20.65 C79.309,20.973 79.221,21.32 79.179,21.691 L84.123,21.691 C84.081,20.864 83.855,20.218 83.448,19.752 C83.04,19.286 82.464,19.052 81.723,19.052 Z M81.802,26.682 C81.176,26.682 80.618,26.568 80.125,26.34 C79.632,26.113 79.216,25.803 78.877,25.411 C78.538,25.018 78.279,24.56 78.098,24.036 C77.918,23.511 77.829,22.952 77.829,22.359 C77.829,21.765 77.92,21.206 78.106,20.682 C78.292,20.157 78.557,19.699 78.901,19.307 C79.246,18.914 79.656,18.605 80.133,18.377 C80.61,18.149 81.14,18.035 81.723,18.035 C82.337,18.035 82.88,18.149 83.352,18.377 C83.824,18.605 84.218,18.923 84.537,19.33 C84.854,19.739 85.095,20.226 85.259,20.793 C85.423,21.36 85.506,21.983 85.506,22.661 L79.148,22.661 C79.168,23.074 79.243,23.461 79.37,23.821 C79.498,24.182 79.672,24.494 79.895,24.759 C80.117,25.024 80.387,25.23 80.706,25.379 C81.023,25.527 81.389,25.601 81.802,25.601 C82.406,25.601 82.899,25.461 83.281,25.18 C83.662,24.899 83.926,24.478 84.076,23.916 L85.331,23.916 C85.14,24.807 84.738,25.49 84.123,25.967 C83.508,26.444 82.735,26.682 81.802,26.682 L81.802,26.682 Z" id="Fill-25" fill="#181816"></path>
            <path d="M86.078,18.242 L87.27,18.242 L87.27,15.65 L88.558,15.65 L88.558,18.242 L90.147,18.242 L90.147,19.291 L88.558,19.291 L88.558,24.632 C88.558,24.918 88.629,25.117 88.772,25.228 C88.916,25.339 89.12,25.395 89.384,25.395 C89.511,25.395 89.639,25.382 89.766,25.355 C89.893,25.328 89.994,25.305 90.068,25.284 L90.116,25.284 L90.116,26.396 C89.967,26.428 89.805,26.454 89.63,26.475 C89.456,26.496 89.273,26.507 89.083,26.507 C88.552,26.507 88.118,26.388 87.779,26.15 C87.44,25.911 87.27,25.501 87.27,24.918 L87.27,19.291 L86.078,19.291 L86.078,18.242" id="Fill-26" fill="#181816"></path>
            <path d="M98.333,26.682 C97.539,26.682 96.844,26.579 96.251,26.372 C95.658,26.166 95.163,25.879 94.765,25.514 C94.368,25.148 94.063,24.717 93.851,24.219 C93.639,23.721 93.517,23.185 93.486,22.613 L94.884,22.613 C95.075,24.563 96.246,25.538 98.397,25.538 C98.79,25.538 99.152,25.493 99.486,25.403 C99.82,25.313 100.106,25.18 100.344,25.005 C100.583,24.83 100.768,24.608 100.901,24.338 C101.033,24.067 101.099,23.757 101.099,23.408 C101.099,23.016 101.017,22.692 100.853,22.438 C100.689,22.184 100.458,21.972 100.162,21.802 C99.865,21.633 99.507,21.492 99.088,21.381 C98.67,21.27 98.207,21.156 97.698,21.039 C97.2,20.933 96.725,20.809 96.275,20.666 C95.825,20.523 95.43,20.334 95.091,20.101 C94.751,19.869 94.481,19.574 94.28,19.219 C94.079,18.864 93.978,18.416 93.978,17.876 C93.978,17.41 94.071,16.991 94.256,16.62 C94.442,16.249 94.704,15.934 95.043,15.674 C95.382,15.415 95.791,15.216 96.267,15.078 C96.744,14.941 97.269,14.871 97.841,14.871 C98.55,14.871 99.163,14.959 99.677,15.134 C100.191,15.309 100.617,15.55 100.957,15.857 C101.295,16.164 101.56,16.538 101.751,16.978 C101.942,17.418 102.075,17.897 102.149,18.416 L100.797,18.416 C100.692,17.6 100.386,16.991 99.883,16.588 C99.38,16.186 98.709,15.984 97.873,15.984 C97.099,15.984 96.479,16.141 96.013,16.453 C95.546,16.766 95.313,17.219 95.313,17.812 C95.313,18.13 95.387,18.398 95.536,18.615 C95.684,18.832 95.891,19.018 96.156,19.171 C96.42,19.325 96.736,19.45 97.102,19.545 C97.467,19.64 97.862,19.73 98.286,19.815 C98.836,19.932 99.367,20.061 99.875,20.204 C100.384,20.348 100.834,20.546 101.227,20.801 C101.619,21.055 101.931,21.387 102.165,21.794 C102.398,22.203 102.514,22.724 102.514,23.36 C102.514,23.89 102.411,24.361 102.205,24.775 C101.998,25.188 101.708,25.535 101.338,25.816 C100.967,26.097 100.527,26.311 100.019,26.46 C99.51,26.608 98.948,26.682 98.333,26.682" id="Fill-27" fill="#181816"></path>
            <path d="M107.394,19.052 C107.012,19.052 106.673,19.119 106.376,19.251 C106.08,19.384 105.829,19.569 105.622,19.807 C105.416,20.046 105.246,20.327 105.113,20.65 C104.98,20.973 104.893,21.32 104.851,21.691 L109.794,21.691 C109.751,20.864 109.527,20.218 109.119,19.752 C108.71,19.286 108.136,19.052 107.394,19.052 Z M107.473,26.682 C106.848,26.682 106.29,26.568 105.796,26.34 C105.304,26.113 104.888,25.803 104.548,25.411 C104.209,25.018 103.95,24.56 103.77,24.036 C103.589,23.511 103.5,22.952 103.5,22.359 C103.5,21.765 103.592,21.206 103.778,20.682 C103.963,20.157 104.228,19.699 104.573,19.307 C104.917,18.914 105.328,18.605 105.804,18.377 C106.282,18.149 106.811,18.035 107.394,18.035 C108.008,18.035 108.551,18.149 109.023,18.377 C109.495,18.605 109.89,18.923 110.208,19.33 C110.526,19.739 110.766,20.226 110.931,20.793 C111.095,21.36 111.177,21.983 111.177,22.661 L104.819,22.661 C104.84,23.074 104.915,23.461 105.042,23.821 C105.168,24.182 105.343,24.494 105.566,24.759 C105.789,25.024 106.059,25.23 106.376,25.379 C106.695,25.527 107.06,25.601 107.473,25.601 C108.078,25.601 108.571,25.461 108.952,25.18 C109.333,24.899 109.598,24.478 109.747,23.916 L111.002,23.916 C110.812,24.807 110.409,25.49 109.794,25.967 C109.179,26.444 108.406,26.682 107.473,26.682 L107.473,26.682 Z" id="Fill-28" fill="#181816"></path>
            <path d="M115.946,26.682 C115.332,26.682 114.78,26.568 114.292,26.34 C113.805,26.113 113.389,25.803 113.044,25.411 C112.701,25.018 112.435,24.56 112.25,24.036 C112.065,23.511 111.972,22.952 111.972,22.359 C111.972,21.765 112.065,21.206 112.25,20.682 C112.435,20.157 112.701,19.699 113.044,19.307 C113.389,18.914 113.805,18.605 114.292,18.377 C114.78,18.149 115.332,18.035 115.946,18.035 C116.92,18.035 117.712,18.292 118.323,18.806 C118.931,19.32 119.31,20.016 119.458,20.896 L118.156,20.896 C118.06,20.334 117.824,19.895 117.448,19.577 C117.072,19.259 116.571,19.1 115.946,19.1 C115.511,19.1 115.127,19.185 114.793,19.354 C114.459,19.524 114.181,19.757 113.958,20.054 C113.737,20.35 113.57,20.695 113.458,21.087 C113.347,21.479 113.292,21.903 113.292,22.359 C113.292,22.814 113.347,23.238 113.458,23.63 C113.57,24.022 113.737,24.364 113.958,24.656 C114.181,24.947 114.459,25.178 114.793,25.347 C115.127,25.516 115.511,25.601 115.946,25.601 C116.614,25.601 117.14,25.421 117.528,25.061 C117.915,24.701 118.134,24.203 118.187,23.567 L119.458,23.567 C119.374,24.563 119.024,25.331 118.41,25.871 C117.795,26.412 116.974,26.682 115.946,26.682" id="Fill-29" fill="#181816"></path>
            <path d="M125.913,26.46 L125.913,25.331 L125.88,25.331 C125.583,25.734 125.248,26.055 124.872,26.293 C124.495,26.531 124.005,26.65 123.401,26.65 C122.553,26.65 121.88,26.412 121.382,25.935 C120.884,25.458 120.635,24.79 120.635,23.932 L120.635,18.242 L121.922,18.242 L121.922,23.9 C121.922,24.441 122.084,24.857 122.408,25.148 C122.731,25.44 123.184,25.585 123.767,25.585 C124.095,25.585 124.392,25.527 124.657,25.411 C124.921,25.294 125.147,25.132 125.333,24.926 C125.518,24.719 125.661,24.478 125.761,24.203 C125.862,23.927 125.913,23.625 125.913,23.296 L125.913,18.242 L127.2,18.242 L127.2,26.46 L125.913,26.46" id="Fill-30" fill="#181816"></path>
            <path d="M130.236,19.609 L130.268,19.609 C130.511,19.206 130.842,18.862 131.261,18.576 C131.68,18.289 132.165,18.146 132.715,18.146 C132.833,18.146 132.927,18.154 133.002,18.17 L133.241,18.242 L133.241,19.481 L133.193,19.481 C133.097,19.45 133.01,19.429 132.93,19.418 C132.851,19.408 132.748,19.402 132.621,19.402 C132.302,19.402 132,19.46 131.714,19.577 C131.428,19.694 131.174,19.858 130.952,20.07 C130.729,20.282 130.554,20.544 130.427,20.856 C130.299,21.169 130.236,21.516 130.236,21.897 L130.236,26.46 L128.949,26.46 L128.949,18.242 L130.236,18.242 L130.236,19.609" id="Fill-31" fill="#181816"></path>
            <path d="M134.401,26.46 L135.688,26.46 L135.688,18.242 L134.401,18.242 L134.401,26.46 Z M134.401,16.684 L135.688,16.684 L135.688,15.094 L134.401,15.094 L134.401,16.684 Z" id="Fill-32" fill="#181816"></path>
            <path d="M136.912,18.242 L138.104,18.242 L138.104,15.65 L139.392,15.65 L139.392,18.242 L140.981,18.242 L140.981,19.291 L139.392,19.291 L139.392,24.632 C139.392,24.918 139.463,25.117 139.606,25.228 C139.75,25.339 139.954,25.395 140.218,25.395 C140.345,25.395 140.473,25.382 140.6,25.355 C140.727,25.328 140.828,25.305 140.902,25.284 L140.95,25.284 L140.95,26.396 C140.801,26.428 140.639,26.454 140.464,26.475 C140.29,26.496 140.107,26.507 139.917,26.507 C139.386,26.507 138.952,26.388 138.613,26.15 C138.274,25.911 138.104,25.501 138.104,24.918 L138.104,19.291 L136.912,19.291 L136.912,18.242" id="Fill-33" fill="#181816"></path>
            <path d="M143.366,29.178 C143.122,29.178 142.913,29.167 142.738,29.146 C142.563,29.125 142.385,29.077 142.206,29.003 L142.206,27.859 L142.269,27.859 C142.353,27.911 142.467,27.954 142.611,27.986 C142.753,28.017 142.931,28.034 143.143,28.034 C143.418,28.034 143.652,27.967 143.842,27.835 C144.034,27.702 144.208,27.434 144.367,27.032 L144.685,26.221 L141.474,18.242 L142.873,18.242 L144.812,23.36 C144.875,23.54 144.939,23.723 145.002,23.909 C145.067,24.094 145.125,24.266 145.178,24.425 C145.242,24.616 145.305,24.796 145.369,24.966 L145.4,24.966 C145.454,24.796 145.511,24.616 145.575,24.425 C145.628,24.266 145.686,24.094 145.75,23.909 C145.814,23.723 145.877,23.54 145.941,23.36 L147.817,18.242 L149.183,18.242 L145.67,27.127 C145.5,27.551 145.333,27.895 145.169,28.161 C145.005,28.425 144.831,28.635 144.645,28.788 C144.459,28.942 144.264,29.045 144.057,29.099 C143.85,29.151 143.62,29.178 143.366,29.178" id="Fill-34" fill="#181816"></path>
            <path d="M161.578,22.044 L164.074,22.044 C164.663,22.044 165.104,21.907 165.399,21.632 C165.693,21.357 165.84,20.981 165.84,20.502 C165.84,19.984 165.71,19.597 165.452,19.342 C165.193,19.087 164.752,18.959 164.133,18.959 L161.578,18.959 L161.578,22.044 Z M160.518,18.041 L164.451,18.041 C164.82,18.041 165.158,18.096 165.463,18.205 C165.77,18.316 166.031,18.473 166.247,18.677 C166.462,18.881 166.631,19.124 166.752,19.407 C166.875,19.689 166.935,20.003 166.935,20.349 C166.935,20.867 166.82,21.303 166.588,21.656 C166.356,22.009 165.986,22.268 165.475,22.433 L165.475,22.468 C165.687,22.547 165.866,22.643 166.011,22.757 C166.156,22.87 166.276,23.014 166.37,23.186 C166.464,23.359 166.535,23.561 166.582,23.793 C166.629,24.024 166.665,24.297 166.688,24.611 C166.711,24.949 166.737,25.227 166.764,25.447 C166.792,25.667 166.824,25.844 166.859,25.977 C166.894,26.111 166.929,26.211 166.964,26.277 L167.077,26.412 L167.077,26.46 L165.934,26.46 L165.823,26.301 C165.795,26.234 165.771,26.132 165.751,25.995 C165.732,25.857 165.712,25.675 165.693,25.447 C165.673,25.22 165.652,24.929 165.628,24.576 C165.589,23.956 165.436,23.522 165.169,23.275 C164.902,23.027 164.486,22.904 163.921,22.904 L161.578,22.904 L161.578,26.46 L160.518,26.46 L160.518,18.041 L160.518,18.041 Z" id="Fill-35" fill="#181816"></path>
            <path d="M168.078,26.46 L169.031,26.46 L169.031,20.372 L168.078,20.372 L168.078,26.46 Z M168.078,19.218 L169.031,19.218 L169.031,18.041 L168.078,18.041 L168.078,19.218 Z" id="Fill-36" fill="#181816"></path>
            <path d="M172.63,26.636 C171.794,26.636 171.146,26.45 170.691,26.077 C170.236,25.704 169.985,25.172 169.938,24.482 L170.915,24.482 C170.946,24.748 171.013,24.968 171.115,25.141 C171.217,25.314 171.344,25.451 171.498,25.553 C171.651,25.655 171.826,25.728 172.02,25.771 C172.22,25.814 172.43,25.836 172.66,25.836 C173.16,25.836 173.52,25.74 173.74,25.547 C173.96,25.355 174.07,25.118 174.07,24.835 C174.07,24.662 174.04,24.519 173.98,24.405 C173.92,24.291 173.83,24.195 173.7,24.117 C173.57,24.038 173.41,23.972 173.21,23.916 C173.01,23.862 172.76,23.803 172.48,23.74 C172.18,23.677 171.896,23.61 171.622,23.539 C171.346,23.469 171.105,23.369 170.897,23.239 C170.689,23.11 170.522,22.939 170.397,22.727 C170.271,22.515 170.208,22.245 170.208,21.914 C170.208,21.405 170.395,20.998 170.768,20.696 C171.14,20.394 171.684,20.243 172.4,20.243 C173.16,20.243 173.73,20.411 174.11,20.749 C174.49,21.087 174.72,21.554 174.79,22.15 L173.81,22.15 C173.76,21.75 173.63,21.457 173.4,21.273 C173.17,21.089 172.83,20.996 172.38,20.996 C171.935,20.996 171.622,21.08 171.433,21.249 C171.245,21.418 171.151,21.624 171.151,21.868 C171.151,22.033 171.186,22.168 171.256,22.274 C171.327,22.38 171.433,22.468 171.575,22.539 C171.715,22.609 171.888,22.668 172.09,22.715 C172.3,22.763 172.53,22.813 172.79,22.869 C173.09,22.932 173.38,23 173.65,23.075 C173.92,23.149 174.16,23.255 174.37,23.392 C174.58,23.53 174.74,23.708 174.86,23.928 C174.98,24.148 175.04,24.434 175.04,24.787 C175.04,25.094 174.98,25.363 174.86,25.594 C174.74,25.826 174.58,26.018 174.36,26.171 C174.15,26.325 173.9,26.44 173.6,26.518 C173.31,26.597 172.99,26.636 172.63,26.636" id="Fill-37" fill="#181816"></path>
            <polyline id="Fill-38" fill="#181816" points="177.8 23.175 176.91 24.022 176.91 26.46 175.95 26.46 175.95 18.041 176.91 18.041 176.91 22.974 179.58 20.372 180.79 20.372 178.46 22.562 181.08 26.46 179.96 26.46 177.8 23.175"></polyline>
            <polygon id="Fill-39" fill="#181816" points="183.75 26.46 184.81 26.46 184.81 18.041 183.75 18.041"></polygon>
            <path d="M187.22,21.173 L187.25,21.173 C187.47,20.883 187.73,20.653 188.04,20.484 C188.35,20.315 188.73,20.231 189.18,20.231 C189.81,20.231 190.31,20.398 190.68,20.731 C191.04,21.065 191.23,21.55 191.23,22.185 L191.23,26.46 L190.27,26.46 L190.27,22.268 C190.27,21.868 190.15,21.561 189.91,21.349 C189.66,21.138 189.33,21.032 188.9,21.032 C188.65,21.032 188.43,21.073 188.22,21.155 C188.02,21.238 187.84,21.351 187.69,21.496 C187.54,21.642 187.43,21.819 187.35,22.027 C187.26,22.235 187.22,22.464 187.22,22.715 L187.22,26.46 L186.27,26.46 L186.27,20.372 L187.22,20.372 L187.22,21.173" id="Fill-40" fill="#181816"></path>
            <path d="M191.98,20.372 L192.86,20.372 L192.86,18.453 L193.82,18.453 L193.82,20.372 L194.99,20.372 L194.99,21.149 L193.82,21.149 L193.82,25.106 C193.82,25.318 193.87,25.465 193.98,25.547 C194.08,25.63 194.23,25.671 194.43,25.671 C194.52,25.671 194.62,25.661 194.71,25.641 C194.81,25.622 194.88,25.604 194.94,25.588 L194.97,25.588 L194.97,26.412 C194.86,26.436 194.74,26.456 194.61,26.472 C194.48,26.487 194.35,26.495 194.21,26.495 C193.81,26.495 193.49,26.407 193.24,26.23 C192.99,26.054 192.86,25.749 192.86,25.318 L192.86,21.149 L191.98,21.149 L191.98,20.372" id="Fill-41" fill="#181816"></path>
            <path d="M198.47,20.973 C198.19,20.973 197.93,21.022 197.71,21.12 C197.49,21.218 197.31,21.355 197.15,21.532 C197,21.708 196.88,21.917 196.78,22.156 C196.68,22.395 196.61,22.653 196.58,22.927 L200.25,22.927 C200.21,22.315 200.05,21.836 199.75,21.491 C199.44,21.145 199.02,20.973 198.47,20.973 Z M198.53,26.624 C198.06,26.624 197.65,26.54 197.28,26.371 C196.92,26.203 196.61,25.973 196.36,25.682 C196.11,25.392 195.92,25.053 195.78,24.664 C195.65,24.275 195.58,23.862 195.58,23.422 C195.58,22.982 195.65,22.568 195.79,22.18 C195.93,21.791 196.12,21.452 196.38,21.161 C196.63,20.871 196.94,20.641 197.29,20.472 C197.64,20.304 198.04,20.219 198.47,20.219 C198.92,20.219 199.33,20.304 199.67,20.472 C200.02,20.641 200.32,20.877 200.55,21.179 C200.79,21.481 200.97,21.842 201.09,22.262 C201.21,22.682 201.27,23.143 201.27,23.645 L196.56,23.645 C196.58,23.952 196.63,24.238 196.73,24.505 C196.82,24.772 196.95,25.004 197.11,25.2 C197.28,25.396 197.48,25.549 197.71,25.659 C197.95,25.769 198.22,25.824 198.53,25.824 C198.97,25.824 199.34,25.72 199.62,25.512 C199.9,25.304 200.1,24.992 200.21,24.576 L201.14,24.576 C201,25.235 200.7,25.742 200.25,26.095 C199.79,26.448 199.22,26.624 198.53,26.624 L198.53,26.624 Z" id="Fill-42" fill="#181816"></path>
            <polygon id="Fill-43" fill="#181816" points="202.24 26.46 203.19 26.46 203.19 18.041 202.24 18.041"></polygon>
            <polygon id="Fill-44" fill="#181816" points="204.56 26.46 205.51 26.46 205.51 18.041 204.56 18.041"></polygon>
            <path d="M206.84,26.46 L207.79,26.46 L207.79,20.372 L206.84,20.372 L206.84,26.46 Z M206.84,19.218 L207.79,19.218 L207.79,18.041 L206.84,18.041 L206.84,19.218 Z" id="Fill-45" fill="#181816"></path>
            <path d="M211.45,25.447 C211.81,25.447 212.1,25.39 212.34,25.276 C212.57,25.162 212.76,25.004 212.9,24.8 C213.04,24.596 213.15,24.356 213.21,24.081 C213.27,23.807 213.3,23.508 213.3,23.186 C213.3,22.519 213.16,21.993 212.86,21.608 C212.57,21.224 212.09,21.032 211.44,21.032 C210.87,21.032 210.44,21.236 210.15,21.644 C209.87,22.052 209.72,22.586 209.72,23.245 C209.72,23.912 209.87,24.446 210.17,24.847 C210.46,25.247 210.89,25.447 211.45,25.447 Z M211.51,28.485 C210.72,28.485 210.11,28.336 209.67,28.037 C209.24,27.739 208.99,27.327 208.94,26.801 L209.82,26.801 C209.87,27.139 210.04,27.378 210.34,27.519 C210.63,27.661 211.02,27.731 211.49,27.731 C212.06,27.731 212.49,27.604 212.79,27.349 C213.08,27.094 213.23,26.699 213.23,26.165 L213.23,25.306 L213.21,25.306 C212.98,25.597 212.73,25.826 212.47,25.995 C212.2,26.163 211.85,26.248 211.41,26.248 C211.02,26.248 210.66,26.173 210.33,26.024 C210,25.875 209.72,25.667 209.49,25.4 C209.25,25.133 209.07,24.815 208.94,24.446 C208.81,24.078 208.75,23.673 208.75,23.233 C208.75,22.763 208.81,22.341 208.95,21.968 C209.09,21.595 209.28,21.279 209.52,21.02 C209.76,20.761 210.03,20.565 210.35,20.431 C210.66,20.298 211,20.231 211.35,20.231 C211.8,20.231 212.17,20.311 212.46,20.472 C212.76,20.633 213.01,20.859 213.21,21.149 L213.23,21.149 L213.23,20.372 L214.19,20.372 L214.19,26.13 C214.19,26.53 214.12,26.878 214,27.172 C213.87,27.467 213.69,27.712 213.46,27.908 C213.22,28.104 212.94,28.249 212.61,28.344 C212.28,28.438 211.91,28.485 211.51,28.485 L211.51,28.485 Z" id="Fill-46" fill="#181816"></path>
            <path d="M218.02,20.973 C217.74,20.973 217.49,21.022 217.27,21.12 C217.05,21.218 216.87,21.355 216.71,21.532 C216.56,21.708 216.43,21.917 216.34,22.156 C216.24,22.395 216.17,22.653 216.14,22.927 L219.8,22.927 C219.77,22.315 219.6,21.836 219.3,21.491 C219,21.145 218.57,20.973 218.02,20.973 Z M218.08,26.624 C217.62,26.624 217.21,26.54 216.84,26.371 C216.48,26.203 216.17,25.973 215.92,25.682 C215.67,25.392 215.47,25.053 215.34,24.664 C215.21,24.275 215.14,23.862 215.14,23.422 C215.14,22.982 215.21,22.568 215.35,22.18 C215.48,21.791 215.68,21.452 215.94,21.161 C216.19,20.871 216.49,20.641 216.85,20.472 C217.2,20.304 217.59,20.219 218.02,20.219 C218.48,20.219 218.88,20.304 219.23,20.472 C219.58,20.641 219.87,20.877 220.11,21.179 C220.35,21.481 220.52,21.842 220.65,22.262 C220.77,22.682 220.83,23.143 220.83,23.645 L216.12,23.645 C216.13,23.952 216.19,24.238 216.28,24.505 C216.38,24.772 216.51,25.004 216.67,25.2 C216.84,25.396 217.04,25.549 217.27,25.659 C217.51,25.769 217.78,25.824 218.08,25.824 C218.53,25.824 218.9,25.72 219.18,25.512 C219.46,25.304 219.66,24.992 219.77,24.576 L220.7,24.576 C220.56,25.235 220.26,25.742 219.8,26.095 C219.35,26.448 218.77,26.624 218.08,26.624 L218.08,26.624 Z" id="Fill-47" fill="#181816"></path>
            <path d="M222.71,21.173 L222.73,21.173 C222.95,20.883 223.22,20.653 223.53,20.484 C223.84,20.315 224.22,20.231 224.67,20.231 C225.3,20.231 225.8,20.398 226.17,20.731 C226.53,21.065 226.71,21.55 226.71,22.185 L226.71,26.46 L225.76,26.46 L225.76,22.268 C225.76,21.868 225.64,21.561 225.4,21.349 C225.15,21.138 224.81,21.032 224.38,21.032 C224.14,21.032 223.92,21.073 223.71,21.155 C223.51,21.238 223.33,21.351 223.18,21.496 C223.03,21.642 222.92,21.819 222.84,22.027 C222.75,22.235 222.71,22.464 222.71,22.715 L222.71,26.46 L221.76,26.46 L221.76,20.372 L222.71,20.372 L222.71,21.173" id="Fill-48" fill="#181816"></path>
            <path d="M230.58,26.624 C230.12,26.624 229.71,26.54 229.35,26.371 C228.99,26.203 228.68,25.973 228.43,25.682 C228.17,25.392 227.98,25.053 227.84,24.664 C227.7,24.275 227.63,23.862 227.63,23.422 C227.63,22.982 227.7,22.568 227.84,22.18 C227.98,21.791 228.17,21.452 228.43,21.161 C228.68,20.871 228.99,20.641 229.35,20.472 C229.71,20.304 230.12,20.219 230.58,20.219 C231.3,20.219 231.89,20.41 232.34,20.79 C232.79,21.171 233.07,21.687 233.18,22.339 L232.21,22.339 C232.14,21.923 231.97,21.597 231.69,21.361 C231.41,21.126 231.04,21.008 230.58,21.008 C230.26,21.008 229.97,21.071 229.72,21.196 C229.48,21.322 229.27,21.495 229.1,21.715 C228.94,21.934 228.82,22.189 228.73,22.48 C228.65,22.77 228.61,23.084 228.61,23.422 C228.61,23.76 228.65,24.074 228.73,24.364 C228.82,24.654 228.94,24.908 229.1,25.123 C229.27,25.339 229.48,25.51 229.72,25.636 C229.97,25.761 230.26,25.824 230.58,25.824 C231.07,25.824 231.46,25.69 231.75,25.424 C232.03,25.157 232.2,24.787 232.24,24.317 L233.18,24.317 C233.12,25.055 232.86,25.624 232.4,26.024 C231.95,26.424 231.34,26.624 230.58,26.624" id="Fill-49" fill="#181816"></path>
            <path d="M236.63,20.973 C236.35,20.973 236.1,21.022 235.88,21.12 C235.66,21.218 235.47,21.355 235.32,21.532 C235.16,21.708 235.04,21.917 234.94,22.156 C234.84,22.395 234.78,22.653 234.75,22.927 L238.41,22.927 C238.38,22.315 238.21,21.836 237.91,21.491 C237.6,21.145 237.18,20.973 236.63,20.973 Z M236.69,26.624 C236.23,26.624 235.81,26.54 235.45,26.371 C235.08,26.203 234.77,25.973 234.52,25.682 C234.27,25.392 234.08,25.053 233.94,24.664 C233.81,24.275 233.74,23.862 233.74,23.422 C233.74,22.982 233.81,22.568 233.95,22.18 C234.09,21.791 234.28,21.452 234.54,21.161 C234.79,20.871 235.1,20.641 235.45,20.472 C235.81,20.304 236.2,20.219 236.63,20.219 C237.08,20.219 237.49,20.304 237.84,20.472 C238.19,20.641 238.48,20.877 238.71,21.179 C238.95,21.481 239.13,21.842 239.25,22.262 C239.37,22.682 239.43,23.143 239.43,23.645 L234.72,23.645 C234.74,23.952 234.79,24.238 234.89,24.505 C234.98,24.772 235.11,25.004 235.27,25.2 C235.44,25.396 235.64,25.549 235.88,25.659 C236.11,25.769 236.38,25.824 236.69,25.824 C237.14,25.824 237.5,25.72 237.78,25.512 C238.07,25.304 238.26,24.992 238.37,24.576 L239.3,24.576 C239.16,25.235 238.86,25.742 238.41,26.095 C237.95,26.448 237.38,26.624 236.69,26.624 L236.69,26.624 Z" id="Fill-50" fill="#181816"></path>
            <polygon id="Fill-51" fill="#181816" points="154.178 26.46 155.019 26.46 155.019 15.198 154.178 15.198"></polygon>
            <polygon id="Fill-52" fill="#62296D" points="15.036 29.418 19.143 29.418 19.143 25.31 15.036 25.31"></polygon>
            <polygon id="Fill-53" fill="#62296D" points="15.036 12.986 19.143 12.986 19.143 8.878 15.036 8.878"></polygon>
            <polygon id="Fill-54" fill="#62296D" points="23.25 29.418 27.359 29.418 27.359 25.31 23.25 25.31"></polygon>
            <polygon id="Fill-55" fill="#62296D" points="23.25 21.202 27.359 21.202 27.359 17.094 23.25 17.094"></polygon>
            <polygon id="Fill-56" fill="#62296D" points="23.25 12.986 27.359 12.986 27.359 8.878 23.25 8.878"></polygon>
            <polyline id="Fill-57" fill="#62296D" points="6.82 0.662 6.82 8.712 10.927 12.82 10.927 4.77 31.466 4.77 31.466 33.526 10.927 33.526 10.927 25.476 6.82 29.584 6.82 37.634 35.575 37.634 35.575 0.662 6.82 0.662"></polyline>
            <polyline id="Fill-58" fill="#2195C0" points="3.479 27.447 0.575 24.542 5.968 19.148 0.575 13.754 3.479 10.849 11.778 19.148 3.479 27.447"></polyline>
            <polyline id="Fill-59" fill="#2195C0" points="17.09 22.052 14.186 19.147 17.09 16.242 19.995 19.147 17.09 22.052"></polyline>
        </g>
    </g>
</svg>